<svg width="49" height="48" viewBox="0 0 49 48" fill="none" xmlns="http://www.w3.org/2000/svg">
<g filter="url(#filter0_d)">
<path d="M25.8687 16V24.5L32.8687 28.66L31.4287 31.08L22.8687 26V16H25.8687Z" fill="#D72323"/>
<path d="M42.8687 20.24H29.3087L34.7887 14.6C29.3287 9.2 20.4887 9 15.0287 14.4C9.56866 19.82 9.56866 28.56 15.0287 34C20.4887 39.4 29.3287 39.4 34.7887 34C37.5087 31.3 38.8687 28.16 38.8687 24.2H42.8687C42.8687 28.16 41.1087 33.3 37.5887 36.78C30.5687 43.74 19.1687 43.74 12.1487 36.78C5.14866 29.84 5.08866 18.56 12.1087 11.62C19.1287 4.68 30.3887 4.68 37.4087 11.62L42.8687 6V20.24Z" fill="#E5EFF5"/>
</g>
<defs>
<filter id="filter0_d" x="-3.13135" y="-2" width="56" height="56" filterUnits="userSpaceOnUse" color-interpolation-filters="sRGB">
<feFlood flood-opacity="0" result="BackgroundImageFix"/>
<feColorMatrix in="SourceAlpha" type="matrix" values="0 0 0 0 0 0 0 0 0 0 0 0 0 0 0 0 0 0 127 0"/>
<feOffset dy="2"/>
<feGaussianBlur stdDeviation="2"/>
<feColorMatrix type="matrix" values="0 0 0 0 0 0 0 0 0 0 0 0 0 0 0 0 0 0 0.25 0"/>
<feBlend mode="normal" in2="BackgroundImageFix" result="effect1_dropShadow"/>
<feBlend mode="normal" in="SourceGraphic" in2="effect1_dropShadow" result="shape"/>
</filter>
</defs>
</svg>
