<svg width="128" height="128" viewBox="0 0 128 128" fill="none" xmlns="http://www.w3.org/2000/svg">
<circle cx="64" cy="64" r="64" fill="#4299E1"/>
<path d="M33 77.0909V83.6364C42.1412 83.6364 49.3235 90.8364 49.3235 100H55.8529C55.8529 87.2364 45.7324 77.0909 33 77.0909ZM33 64V70.5455C49.3235 70.5455 62.3824 83.6364 62.3824 100H68.9118C68.9118 80.0364 52.9147 64 33 64ZM81.9706 28H49.3235C45.7324 28 42.7941 30.9455 42.7941 34.5455V58.7636C45.0794 59.4182 47.3647 60.0727 49.3235 60.7273V41.0909H81.9706V83.6364H72.1765C73.8088 87.5636 74.7882 92.1455 75.1147 96.7273H81.9706C85.5618 96.7273 88.5 93.7818 88.5 90.1818V34.5455C88.5 30.9455 85.5618 28 81.9706 28Z" fill="white"/>
</svg>
