<svg width="341" height="48" viewBox="0 0 341 48" fill="none" xmlns="http://www.w3.org/2000/svg">
<g filter="url(#filter0_d)">
<path d="M25.002 16V24.5L32.002 28.66L30.562 31.08L22.002 26V16H25.002Z" fill="#D72323"/>
<path d="M42.002 20.24H28.442L33.922 14.6C28.462 9.2 19.622 9 14.162 14.4C8.70196 19.82 8.70196 28.56 14.162 34C19.622 39.4 28.462 39.4 33.922 34C36.642 31.3 38.002 28.16 38.002 24.2H42.002C42.002 28.16 40.242 33.3 36.722 36.78C29.702 43.74 18.302 43.74 11.282 36.78C4.28196 29.84 4.22196 18.56 11.242 11.62C18.262 4.68 29.522 4.68 36.542 11.62L42.002 6V20.24Z" fill="#E5EFF5"/>
</g>
<g filter="url(#filter1_d)">
<path d="M67.962 12.724C67.362 12.724 66.858 12.52 66.45 12.112C66.042 11.704 65.838 11.212 65.838 10.636C65.838 10.06 66.042 9.568 66.45 9.16C66.858 8.728 67.362 8.512 67.962 8.512C68.538 8.512 69.03 8.728 69.438 9.16C69.846 9.568 70.05 10.06 70.05 10.636C70.05 11.212 69.846 11.704 69.438 12.112C69.03 12.52 68.538 12.724 67.962 12.724ZM66.378 34V16H69.51V34H66.378ZM76.953 20.86C76.953 21.556 77.301 22.12 77.997 22.552C78.693 22.96 79.533 23.296 80.517 23.56C81.501 23.8 82.485 24.088 83.469 24.424C84.453 24.736 85.293 25.288 85.989 26.08C86.685 26.848 87.033 27.844 87.033 29.068C87.033 30.7 86.397 32.008 85.125 32.992C83.877 33.976 82.269 34.468 80.301 34.468C78.549 34.468 77.049 34.084 75.801 33.316C74.553 32.548 73.665 31.528 73.137 30.256L75.837 28.708C76.125 29.572 76.665 30.256 77.457 30.76C78.249 31.264 79.197 31.516 80.301 31.516C81.333 31.516 82.185 31.324 82.857 30.94C83.529 30.532 83.865 29.908 83.865 29.068C83.865 28.372 83.517 27.82 82.821 27.412C82.125 26.98 81.285 26.644 80.301 26.404C79.317 26.14 78.333 25.84 77.349 25.504C76.365 25.168 75.525 24.616 74.829 23.848C74.133 23.08 73.785 22.096 73.785 20.896C73.785 19.336 74.385 18.052 75.585 17.044C76.809 16.036 78.333 15.532 80.157 15.532C81.621 15.532 82.917 15.868 84.045 16.54C85.197 17.188 86.061 18.1 86.637 19.276L84.009 20.752C83.361 19.216 82.077 18.448 80.157 18.448C79.269 18.448 78.513 18.664 77.889 19.096C77.265 19.504 76.953 20.092 76.953 20.86ZM92.3162 20.86C92.3162 21.556 92.6642 22.12 93.3602 22.552C94.0562 22.96 94.8962 23.296 95.8802 23.56C96.8642 23.8 97.8482 24.088 98.8322 24.424C99.8162 24.736 100.656 25.288 101.352 26.08C102.048 26.848 102.396 27.844 102.396 29.068C102.396 30.7 101.76 32.008 100.488 32.992C99.2402 33.976 97.6322 34.468 95.6642 34.468C93.9122 34.468 92.4122 34.084 91.1642 33.316C89.9162 32.548 89.0282 31.528 88.5002 30.256L91.2002 28.708C91.4882 29.572 92.0282 30.256 92.8202 30.76C93.6122 31.264 94.5602 31.516 95.6642 31.516C96.6962 31.516 97.5482 31.324 98.2202 30.94C98.8922 30.532 99.2282 29.908 99.2282 29.068C99.2282 28.372 98.8802 27.82 98.1842 27.412C97.4882 26.98 96.6482 26.644 95.6642 26.404C94.6802 26.14 93.6962 25.84 92.7122 25.504C91.7282 25.168 90.8882 24.616 90.1922 23.848C89.4962 23.08 89.1482 22.096 89.1482 20.896C89.1482 19.336 89.7482 18.052 90.9482 17.044C92.1722 16.036 93.6962 15.532 95.5202 15.532C96.9842 15.532 98.2802 15.868 99.4082 16.54C100.56 17.188 101.424 18.1 102 19.276L99.3722 20.752C98.7242 19.216 97.4402 18.448 95.5202 18.448C94.6322 18.448 93.8762 18.664 93.2522 19.096C92.6282 19.504 92.3162 20.092 92.3162 20.86ZM118.349 16H121.481V34H118.349V31.408C117.077 33.448 115.133 34.468 112.517 34.468C110.405 34.468 108.713 33.808 107.441 32.488C106.169 31.144 105.533 29.332 105.533 27.052V16H108.665V26.872C108.665 28.336 109.061 29.476 109.853 30.292C110.645 31.084 111.737 31.48 113.129 31.48C114.689 31.48 115.949 31 116.909 30.04C117.869 29.056 118.349 27.556 118.349 25.54V16ZM136.185 15.532C138.705 15.532 140.853 16.456 142.629 18.304C144.405 20.128 145.293 22.36 145.293 25C145.293 27.64 144.405 29.884 142.629 31.732C140.853 33.556 138.705 34.468 136.185 34.468C133.209 34.468 130.941 33.28 129.381 30.904V41.2H126.249V16H129.381V19.096C130.941 16.72 133.209 15.532 136.185 15.532ZM135.789 31.444C137.589 31.444 139.101 30.832 140.325 29.608C141.549 28.36 142.161 26.824 142.161 25C142.161 23.176 141.549 21.652 140.325 20.428C139.101 19.18 137.589 18.556 135.789 18.556C133.965 18.556 132.441 19.18 131.217 20.428C129.993 21.652 129.381 23.176 129.381 25C129.381 26.824 129.993 28.36 131.217 29.608C132.441 30.832 133.965 31.444 135.789 31.444ZM158.966 15.532C161.486 15.532 163.634 16.456 165.41 18.304C167.186 20.128 168.074 22.36 168.074 25C168.074 27.64 167.186 29.884 165.41 31.732C163.634 33.556 161.486 34.468 158.966 34.468C155.99 34.468 153.722 33.28 152.162 30.904V41.2H149.03V16H152.162V19.096C153.722 16.72 155.99 15.532 158.966 15.532ZM158.57 31.444C160.37 31.444 161.882 30.832 163.106 29.608C164.33 28.36 164.942 26.824 164.942 25C164.942 23.176 164.33 21.652 163.106 20.428C161.882 19.18 160.37 18.556 158.57 18.556C156.746 18.556 155.222 19.18 153.998 20.428C152.774 21.652 152.162 23.176 152.162 25C152.162 26.824 152.774 28.36 153.998 29.608C155.222 30.832 156.746 31.444 158.57 31.444ZM187.004 31.732C185.156 33.556 182.912 34.468 180.272 34.468C177.632 34.468 175.388 33.556 173.54 31.732C171.716 29.908 170.804 27.664 170.804 25C170.804 22.336 171.716 20.092 173.54 18.268C175.388 16.444 177.632 15.532 180.272 15.532C182.912 15.532 185.156 16.444 187.004 18.268C188.852 20.092 189.776 22.336 189.776 25C189.776 27.664 188.852 29.908 187.004 31.732ZM180.272 31.408C182.072 31.408 183.584 30.796 184.808 29.572C186.032 28.348 186.644 26.824 186.644 25C186.644 23.176 186.032 21.652 184.808 20.428C183.584 19.204 182.072 18.592 180.272 18.592C178.496 18.592 176.996 19.204 175.772 20.428C174.548 21.652 173.936 23.176 173.936 25C173.936 26.824 174.548 28.348 175.772 29.572C176.996 30.796 178.496 31.408 180.272 31.408ZM196.6 19.024C197.632 16.792 199.504 15.676 202.216 15.676V18.952C200.68 18.88 199.36 19.288 198.256 20.176C197.152 21.064 196.6 22.492 196.6 24.46V34H193.468V16H196.6V19.024ZM215.494 19.024H210.706V28.78C210.706 29.668 210.874 30.304 211.21 30.688C211.57 31.048 212.11 31.24 212.83 31.264C213.55 31.264 214.438 31.24 215.494 31.192V34C212.758 34.36 210.754 34.144 209.482 33.352C208.21 32.536 207.574 31.012 207.574 28.78V19.024H204.01V16H207.574V11.896L210.706 10.96V16H215.494V19.024ZM220.484 26.44C220.796 28.048 221.528 29.296 222.68 30.184C223.856 31.072 225.296 31.516 227 31.516C229.376 31.516 231.104 30.64 232.184 28.888L234.848 30.4C233.096 33.112 230.456 34.468 226.928 34.468C224.072 34.468 221.744 33.58 219.944 31.804C218.168 30.004 217.28 27.736 217.28 25C217.28 22.288 218.156 20.032 219.908 18.232C221.66 16.432 223.928 15.532 226.712 15.532C229.352 15.532 231.5 16.468 233.156 18.34C234.836 20.188 235.676 22.42 235.676 25.036C235.676 25.492 235.64 25.96 235.568 26.44H220.484ZM226.712 18.484C225.032 18.484 223.64 18.964 222.536 19.924C221.432 20.86 220.748 22.12 220.484 23.704H232.508C232.244 22 231.572 20.704 230.492 19.816C229.412 18.928 228.152 18.484 226.712 18.484ZM254.145 8.8H257.277V34H254.145V30.904C252.585 33.28 250.317 34.468 247.341 34.468C244.821 34.468 242.673 33.556 240.897 31.732C239.121 29.884 238.233 27.64 238.233 25C238.233 22.36 239.121 20.128 240.897 18.304C242.673 16.456 244.821 15.532 247.341 15.532C250.317 15.532 252.585 16.72 254.145 19.096V8.8ZM247.737 31.444C249.561 31.444 251.085 30.832 252.309 29.608C253.533 28.36 254.145 26.824 254.145 25C254.145 23.176 253.533 21.652 252.309 20.428C251.085 19.18 249.561 18.556 247.737 18.556C245.937 18.556 244.425 19.18 243.201 20.428C241.977 21.652 241.365 23.176 241.365 25C241.365 26.824 241.977 28.36 243.201 29.608C244.425 30.832 245.937 31.444 247.737 31.444ZM264.002 34.396C263.354 34.396 262.802 34.168 262.346 33.712C261.89 33.256 261.662 32.704 261.662 32.056C261.662 31.408 261.89 30.856 262.346 30.4C262.802 29.944 263.354 29.716 264.002 29.716C264.674 29.716 265.226 29.944 265.658 30.4C266.114 30.856 266.342 31.408 266.342 32.056C266.342 32.704 266.114 33.256 265.658 33.712C265.226 34.168 264.674 34.396 264.002 34.396ZM277.795 34.468C275.083 34.468 272.827 33.568 271.027 31.768C269.227 29.944 268.327 27.688 268.327 25C268.327 22.312 269.227 20.068 271.027 18.268C272.827 16.444 275.083 15.532 277.795 15.532C279.571 15.532 281.167 15.964 282.583 16.828C283.999 17.668 285.055 18.808 285.751 20.248L283.123 21.76C282.667 20.8 281.959 20.032 280.999 19.456C280.063 18.88 278.995 18.592 277.795 18.592C275.995 18.592 274.483 19.204 273.259 20.428C272.059 21.652 271.459 23.176 271.459 25C271.459 26.8 272.059 28.312 273.259 29.536C274.483 30.76 275.995 31.372 277.795 31.372C278.995 31.372 280.075 31.096 281.035 30.544C281.995 29.968 282.727 29.2 283.231 28.24L285.895 29.788C285.127 31.204 284.023 32.344 282.583 33.208C281.143 34.048 279.547 34.468 277.795 34.468ZM303.933 31.732C302.085 33.556 299.841 34.468 297.201 34.468C294.561 34.468 292.317 33.556 290.469 31.732C288.645 29.908 287.733 27.664 287.733 25C287.733 22.336 288.645 20.092 290.469 18.268C292.317 16.444 294.561 15.532 297.201 15.532C299.841 15.532 302.085 16.444 303.933 18.268C305.781 20.092 306.705 22.336 306.705 25C306.705 27.664 305.781 29.908 303.933 31.732ZM297.201 31.408C299.001 31.408 300.513 30.796 301.737 29.572C302.961 28.348 303.573 26.824 303.573 25C303.573 23.176 302.961 21.652 301.737 20.428C300.513 19.204 299.001 18.592 297.201 18.592C295.425 18.592 293.925 19.204 292.701 20.428C291.477 21.652 290.865 23.176 290.865 25C290.865 26.824 291.477 28.348 292.701 29.572C293.925 30.796 295.425 31.408 297.201 31.408ZM329.837 15.532C331.853 15.532 333.485 16.192 334.733 17.512C335.981 18.808 336.605 20.572 336.605 22.804V34H333.473V22.912C333.473 21.52 333.113 20.44 332.393 19.672C331.673 18.904 330.713 18.52 329.513 18.52C328.169 18.52 327.089 18.976 326.273 19.888C325.481 20.776 325.085 22.144 325.085 23.992V34H321.953V22.912C321.953 21.52 321.605 20.44 320.909 19.672C320.237 18.904 319.313 18.52 318.137 18.52C316.817 18.52 315.713 18.976 314.825 19.888C313.961 20.8 313.529 22.168 313.529 23.992V34H310.397V16H313.529V18.412C314.753 16.492 316.541 15.532 318.893 15.532C321.317 15.532 323.081 16.552 324.185 18.592C325.433 16.552 327.317 15.532 329.837 15.532Z" fill="white"/>
</g>
<defs>
<filter id="filter0_d" x="-3.99805" y="-2" width="56" height="56" filterUnits="userSpaceOnUse" color-interpolation-filters="sRGB">
<feFlood flood-opacity="0" result="BackgroundImageFix"/>
<feColorMatrix in="SourceAlpha" type="matrix" values="0 0 0 0 0 0 0 0 0 0 0 0 0 0 0 0 0 0 127 0"/>
<feOffset dy="2"/>
<feGaussianBlur stdDeviation="2"/>
<feColorMatrix type="matrix" values="0 0 0 0 0 0 0 0 0 0 0 0 0 0 0 0 0 0 0.25 0"/>
<feBlend mode="normal" in2="BackgroundImageFix" result="effect1_dropShadow"/>
<feBlend mode="normal" in="SourceGraphic" in2="effect1_dropShadow" result="shape"/>
</filter>
<filter id="filter1_d" x="61.8379" y="6.51221" width="278.768" height="40.688" filterUnits="userSpaceOnUse" color-interpolation-filters="sRGB">
<feFlood flood-opacity="0" result="BackgroundImageFix"/>
<feColorMatrix in="SourceAlpha" type="matrix" values="0 0 0 0 0 0 0 0 0 0 0 0 0 0 0 0 0 0 127 0"/>
<feOffset dy="2"/>
<feGaussianBlur stdDeviation="2"/>
<feColorMatrix type="matrix" values="0 0 0 0 0 0 0 0 0 0 0 0 0 0 0 0 0 0 0.25 0"/>
<feBlend mode="normal" in2="BackgroundImageFix" result="effect1_dropShadow"/>
<feBlend mode="normal" in="SourceGraphic" in2="effect1_dropShadow" result="shape"/>
</filter>
</defs>
</svg>
